<?xml version="1.0" standalone="no"?>
<!DOCTYPE svg PUBLIC "-//W3C//DTD SVG 20010904//EN"
 "http://www.w3.org/TR/2001/REC-SVG-20010904/DTD/svg10.dtd">
<svg version="1.0" xmlns="http://www.w3.org/2000/svg"
 width="700.000000pt" height="700.000000pt" viewBox="0 0 700.000000 700.000000"
 preserveAspectRatio="xMidYMid meet">
<metadata>
Created by potrace 1.14, written by Peter Selinger 2001-2017
</metadata>
<g transform="translate(0.000000,700.000000) scale(0.100000,-0.100000)"
fill="#000000" stroke="none">
<path d="M1871 4949 c-35 -5 -89 -14 -120 -20 -31 -7 -61 -14 -68 -15 -41 -8
-187 -61 -258 -94 -454 -209 -782 -667 -832 -1160 -18 -177 -4 -369 38 -530
150 -568 629 -993 1213 -1074 74 -10 255 -13 732 -14 l634 0 0 277 0 277 -607
0 c-534 0 -672 4 -733 17 -8 2 -33 7 -55 12 -62 12 -206 77 -277 125 -78 53
-191 165 -246 246 -299 442 -146 1049 330 1303 84 45 216 88 303 98 33 3 336
7 673 7 l612 0 0 277 0 277 -637 -1 c-351 0 -667 -4 -702 -8z"/>
<path d="M3792 4681 l3 -276 630 -1 c452 -1 647 -4 690 -13 303 -62 533 -238
662 -508 l43 -91 284 -1 284 -2 -9 43 c-31 141 -116 338 -202 468 -236 355
-602 586 -1022 644 -76 10 -251 14 -732 14 l-633 0 2 -277z"/>
<path d="M2364 3790 l-30 -5 -1 -287 0 -288 81 0 c44 0 533 0 1086 0 553 0
1041 0 1086 0 l81 0 0 290 0 290 -41 0 c-23 0 -534 1 -1136 3 -602 1 -1109 0
-1126 -3z"/>
<path d="M5832 3193 c-214 -45 -407 -194 -503 -388 -56 -115 -71 -180 -76
-336 l-5 -136 -47 -6 c-62 -8 -107 -32 -161 -86 -84 -86 -82 -62 -82 -780 -1
-591 1 -633 18 -682 25 -69 90 -140 156 -170 l53 -24 795 0 795 0 57 28 c61
30 105 74 140 140 l23 42 0 660 c0 657 0 660 -22 707 -40 88 -130 156 -220
166 l-43 5 -1 86 c-1 47 -1 90 0 94 4 22 -30 178 -49 226 -89 225 -278 392
-509 448 -84 20 -237 23 -319 6z m295 -304 c74 -28 130 -66 181 -124 76 -87
109 -187 108 -335 l-1 -95 -435 0 -435 0 -2 92 c-2 106 13 180 52 256 94 187
333 279 532 206z"/>
<path d="M3794 2585 c-2 -5 -3 -129 -2 -275 l3 -265 290 0 290 0 0 273 c0 149
-2 273 -5 273 -3 1 -133 3 -289 4 -194 1 -284 -2 -287 -10z"/>
</g>
</svg>
